<?xml version="1.0" encoding="UTF-8"?>
<svg version="1.1" xmlns="http://www.w3.org/2000/svg" width="722" height="576">
<path d="M0 0 C238.26 0 476.52 0 722 0 C722 190.08 722 380.16 722 576 C483.74 576 245.48 576 0 576 C0 385.92 0 195.84 0 0 Z " fill="#203040" transform="translate(0,0)"/>
<path d="M0 0 C2.2067133 0.92055978 4.41508503 1.83715297 6.625 2.75 C8.41696564 3.49928538 10.20874151 4.24902565 12 5 C12 5.66 12 6.32 12 7 C13.07894531 7.37318359 13.07894531 7.37318359 14.1796875 7.75390625 C23.84022331 12.02220393 31.77847821 21.44862077 39 29 C39.59425781 29.58910156 40.18851563 30.17820313 40.80078125 30.78515625 C43.44984051 33.58345829 43.99638761 34.95520638 44.3125 38.875 C44.1578125 40.421875 44.1578125 40.421875 44 42 C40.535 42.495 40.535 42.495 37 43 C36.67 43.99 36.34 44.98 36 46 C34.45673025 46.68931252 32.90567689 47.36337637 31.33251953 47.98144531 C26.6136985 50.04203997 22.21528007 52.75374567 17.76010132 55.32424927 C15.9109702 56.39029474 14.05800679 57.44942239 12.2043457 58.50756836 C6.25332815 61.9138577 0.34784179 65.37294 -5.484375 68.98046875 C-6.47300537 69.58648926 -7.46163574 70.19250977 -8.48022461 70.81689453 C-10.3246692 71.95367402 -12.15947494 73.10629245 -13.98266602 74.27685547 C-18.00749827 76.74987429 -20.14510957 78.01431836 -24.96484375 77.93359375 C-27.96264946 77.01148878 -29.64557793 76.01807606 -32 74 C-37.4824372 72.17252093 -43.32830612 71.75661964 -48.65234375 74.234375 C-52.92589326 77.03261487 -56.35230846 79.34446469 -57.625 84.5625 C-58.76743318 94.99120345 -58.76743318 94.99120345 -54.49609375 104.30859375 C-50.2426292 109.11734088 -45.97257334 110.6432912 -39.875 111.375 C-35.29517261 110.9317909 -32.31619517 109.39367639 -28.33203125 107.19140625 C-26.11700075 106.05977425 -24.44702 105.37733072 -22 105 C-19.34086179 106.31598667 -16.93790761 107.67705686 -14.4375 109.25 C-12.89639559 110.18842398 -11.35470816 111.12589104 -9.8125 112.0625 C-9.01585937 112.55105469 -8.21921875 113.03960937 -7.3984375 113.54296875 C-3.6143754 115.84175566 0.22398295 118.04379151 4.0625 120.25 C5.64092241 121.16224602 7.21903757 122.07502382 8.796875 122.98828125 C9.62251953 123.46604004 10.44816406 123.94379883 11.29882812 124.43603516 C16.4728313 127.43175681 21.64405517 130.4321987 26.8125 133.4375 C27.83287354 134.02885742 28.85324707 134.62021484 29.90454102 135.22949219 C34.70318626 138.02279915 39.43130475 140.84302383 44 144 C42.76000913 154.77242066 29.95337783 164.98205093 21.91796875 171.5 C-0.95811564 188.99995427 -28.05510704 195.33389194 -56.59912109 191.66601562 C-61.21873451 190.85746002 -65.5713824 189.5564159 -70 188 C-71.08410156 187.649375 -72.16820312 187.29875 -73.28515625 186.9375 C-98.88204589 177.98014372 -117.74041595 159.99073776 -130 136 C-130.556875 134.91203125 -131.11375 133.8240625 -131.6875 132.703125 C-140.73822409 113.42508269 -143.02805495 91.27749104 -137.0546875 70.828125 C-136.01461267 67.0530386 -135.40311963 63.36734498 -134.8125 59.5 C-132.21442573 46.18662481 -124.01409864 34.85725412 -115 25 C-114.24203125 24.16082031 -113.4840625 23.32164062 -112.703125 22.45703125 C-102.9539354 12.18215006 -91.10410605 3.65461709 -77.75 -1.125 C-73.02179517 -2.49664504 -73.02179517 -2.49664504 -69 -5 C-46.88862917 -10.01532749 -20.75255027 -9.28830889 0 0 Z " fill="#39A9D6" transform="translate(413,134)"/>
<path d="M0 0 C1.19625 0.165 2.3925 0.33 3.625 0.5 C4.40875 0.665 5.1925 0.83 6 1 C6 1.99 6 2.98 6 4 C4.03190637 5.37999465 2.024996 6.70494442 0 8 C-10.34383111 17.12857227 -20.13712075 28.07420388 -25.20703125 41.0703125 C-26 43 -26 43 -28.0625 46.3125 C-30.9085429 51.13743211 -31.77689972 56.59191334 -33 62 C-33.77663971 65.03967122 -34.56377434 68.07648497 -35.3515625 71.11328125 C-36.90128232 78.01233517 -37.15986985 84.65160628 -37.125 91.6875 C-37.12161621 92.66195068 -37.11823242 93.63640137 -37.11474609 94.64038086 C-37.17209585 107.59980304 -37.17209585 107.59980304 -34 120 C-33.75885971 121.59956395 -33.55224861 123.20460187 -33.375 124.8125 C-31.95593139 132.95577063 -27.99025287 139.85901938 -24 147 C-23.62842773 147.67256836 -23.25685547 148.34513672 -22.87402344 149.03808594 C-16.07859462 161.14555833 -7.45195316 172.07176151 3.421875 180.80078125 C4.27265625 181.52652344 5.1234375 182.25226563 6 183 C6 183.66 6 184.32 6 185 C-7.4476297 187.435923 -7.4476297 187.435923 -12.90234375 184.3671875 C-15.57589271 181.74130311 -17.77184287 179.01391453 -20 176 C-20.9088935 174.86122943 -21.82045022 173.72458042 -22.734375 172.58984375 C-31.34030113 161.63684685 -44 144.44284257 -44 130 C-44.66 130 -45.32 130 -46 130 C-49.65088889 117.91218302 -50.19306568 105.87600552 -50.25 93.3125 C-50.26377686 91.63945801 -50.26377686 91.63945801 -50.27783203 89.93261719 C-50.23578332 78.49873183 -48.43246066 67.68191521 -45.375 56.6875 C-45.14554687 55.83994141 -44.91609375 54.99238281 -44.6796875 54.11914062 C-44.1260796 52.07771148 -43.56400061 50.03858235 -43 48 C-42.34 48 -41.68 48 -41 48 C-40.835 46.80375 -40.67 45.6075 -40.5 44.375 C-37.48886759 31.15489125 -27.35209623 19.33539851 -19 9 C-17.80310547 7.50919922 -17.80310547 7.50919922 -16.58203125 5.98828125 C-11.38811338 0.13248358 -7.72402375 -1.28080258 0 0 Z " fill="#213546" transform="translate(383,133)"/>
<path d="M0 0 C-0.763125 0.99 -1.52625 1.98 -2.3125 3 C-5.56986401 7.35359229 -8.70440185 11.78926157 -11.8125 16.25 C-12.30468018 16.94738281 -12.79686035 17.64476562 -13.30395508 18.36328125 C-13.76697021 19.03230469 -14.22998535 19.70132813 -14.70703125 20.390625 C-15.1244458 20.98907227 -15.54186035 21.58751953 -15.97192383 22.20410156 C-17.06986891 24.12205075 -17.56619333 25.84195284 -18 28 C-18.66 28 -19.32 28 -20 28 C-20.66 30.64 -21.32 33.28 -22 36 C-22.66 36 -23.32 36 -24 36 C-24.23783203 36.93005859 -24.23783203 36.93005859 -24.48046875 37.87890625 C-26.26065239 44.63573586 -28.4145541 51.17621166 -30.81640625 57.73828125 C-34.24178056 68.80808847 -34.54074687 80.73856871 -34.625 92.25 C-34.63123383 92.98279175 -34.63746765 93.7155835 -34.64389038 94.47058105 C-34.67637892 108.34712986 -31.95868391 120.39412281 -26.98681641 133.39013672 C-26.12734313 135.66321177 -25.35630878 137.93372223 -24.63671875 140.25390625 C-19.59072092 156.05082728 -9.11549252 169.87716597 2 182 C-1.27317487 183.06340474 -3.52914445 182.91191421 -6.875 182.1875 C-7.69742188 182.01605469 -8.51984375 181.84460938 -9.3671875 181.66796875 C-10.67042969 181.33732422 -10.67042969 181.33732422 -12 181 C-12.98226562 180.80921875 -13.96453125 180.6184375 -14.9765625 180.421875 C-19.38395544 178.34914757 -21.04575099 175.15408496 -23.5 171.0625 C-23.97775879 170.2905127 -24.45551758 169.51852539 -24.94775391 168.72314453 C-26.31754955 166.49297367 -27.66110779 164.24881385 -29 162 C-29.61617188 160.99582031 -30.23234375 159.99164063 -30.8671875 158.95703125 C-35.14935346 151.62409938 -40 141.64686803 -40 133 C-40.66 133 -41.32 133 -42 133 C-48.81778888 109.41045049 -50.89473222 79.52141867 -43 56 C-42.50763879 54.06390233 -42.01542255 52.12770614 -41.54150391 50.18701172 C-39.35684327 41.35260932 -36.13359035 33.09652788 -32 25 C-31.34 25 -30.68 25 -30 25 C-29.92523438 24.32195312 -29.85046875 23.64390625 -29.7734375 22.9453125 C-28.76659159 19.11116193 -26.7946811 16.13638772 -24.625 12.875 C-24.02558594 11.94494141 -24.02558594 11.94494141 -23.4140625 10.99609375 C-17.59867923 2.10085289 -10.63962366 -0.6938885 0 0 Z " fill="#213547" transform="translate(360,135)"/>
<path d="M0 0 C4.90875 -0.103125 9.8175 -0.20625 14.875 -0.3125 C16.40237793 -0.35802002 17.92975586 -0.40354004 19.50341797 -0.45043945 C27.65739019 -0.53296954 34.15193104 0.12709416 41 5 C47.57938157 11.57938157 47.43586932 18.70124633 47.43823242 27.46679688 C47.26484348 35.83224051 45.37130958 40.7089597 39.375 46.5625 C37 48 37 48 34 48 C34 48.66 34 49.32 34 50 C30.46173745 51.17942085 27.65851274 51.11289189 23.92578125 51.09765625 C22.67450439 51.09515869 21.42322754 51.09266113 20.1340332 51.09008789 C17.74737427 51.07643188 17.74737427 51.07643188 15.3125 51.0625 C10.259375 51.041875 5.20625 51.02125 0 51 C0 34.17 0 17.34 0 0 Z " fill="#1CD4CD" transform="translate(365,359)"/>
<path d="M0 0 C-0.67883043 3.11547441 -1.74106902 5.85137721 -3.0625 8.75 C-3.42472656 9.54921875 -3.78695313 10.3484375 -4.16015625 11.171875 C-4.43730469 11.77515625 -4.71445312 12.3784375 -5 13 C-5.66 13 -6.32 13 -7 13 C-7.268125 14.175625 -7.53625 15.35125 -7.8125 16.5625 C-8.8144266 20.58431803 -10.3337547 24.20096072 -12 28 C-14.42734229 34.42474802 -15.90960589 40.8771319 -17.125 47.625 C-17.29386719 48.52734375 -17.46273438 49.4296875 -17.63671875 50.359375 C-18.94916664 57.44866046 -20.12540943 64.37319678 -20.1328125 71.60546875 C-20.13410156 72.83716797 -20.13539063 74.06886719 -20.13671875 75.33789062 C-20.13285156 76.60826172 -20.12898438 77.87863281 -20.125 79.1875 C-20.12886719 80.43853516 -20.13273437 81.68957031 -20.13671875 82.97851562 C-20.12609736 93.18036149 -20.07385005 103.31559798 -17.25 113.1875 C-16.71632813 115.06888672 -16.71632813 115.06888672 -16.171875 116.98828125 C-15.88666992 117.9620874 -15.88666992 117.9620874 -15.59570312 118.95556641 C-14.96930406 121.10534746 -14.36645561 123.26091154 -13.765625 125.41796875 C-10.55333536 136.82421364 -6.54773899 146.39818633 -0.29296875 156.49609375 C0.13371094 157.32238281 0.56039062 158.14867187 1 159 C0.67 159.66 0.34 160.32 0 161 C-14.10036599 152.24393516 -21.6139961 144.92877574 -26.37988281 128.98193359 C-26.89547412 127.33407128 -27.51017517 125.71762092 -28.1484375 124.11328125 C-39.59485022 95.32512295 -35.10811337 57.76144116 -26 29 C-25.66959717 27.93966553 -25.66959717 27.93966553 -25.33251953 26.85791016 C-22.41561437 17.79792222 -18.94139235 11.50689994 -11 6 C-10.17242187 5.40316406 -9.34484375 4.80632812 -8.4921875 4.19140625 C-2.47127598 0 -2.47127598 0 0 0 Z " fill="#223648" transform="translate(327,146)"/>
<path d="M0 0 C31.02702703 0 31.02702703 0 37.4375 4.3125 C41.93111357 9.02531423 42.45293981 13.0825233 42.3203125 19.4296875 C41.68037843 24.56476824 39.60290937 28.57519167 35.75 32 C34.88375 32.495 34.88375 32.495 34 33 C34.5781282 37.40517402 36.2488062 40.42482624 38.5625 44.1875 C42 49.79678068 42 49.79678068 42 52 C38.37 52 34.74 52 31 52 C30.60167969 51.26394531 30.20335937 50.52789062 29.79296875 49.76953125 C29.26316406 48.79371094 28.73335938 47.81789063 28.1875 46.8125 C27.66542969 45.84957031 27.14335937 44.88664062 26.60546875 43.89453125 C26.07566406 42.93933594 25.54585938 41.98414063 25 41 C24.566875 40.071875 24.13375 39.14375 23.6875 38.1875 C22.14186314 35.71222425 22.14186314 35.71222425 19.08203125 35.29296875 C18.00308594 35.25816406 16.92414063 35.22335937 15.8125 35.1875 C13.894375 35.125625 11.97625 35.06375 10 35 C10 40.61 10 46.22 10 52 C6.7 52 3.4 52 0 52 C0 34.84 0 17.68 0 0 Z " fill="#1CD2CB" transform="translate(319,358)"/>
<path d="M0 0 C1.93559313 -0.13504138 3.873872 -0.23201129 5.8125 -0.3125 C6.89144531 -0.37050781 7.97039062 -0.42851562 9.08203125 -0.48828125 C12 0 12 0 13.76171875 2.10546875 C15.10586597 5.24746588 16.08164868 8.33184956 17 11.625 C19.73669783 21.00747427 23.5543433 29.94757535 27.34179688 38.94580078 C28.04852539 40.63745361 28.04852539 40.63745361 28.76953125 42.36328125 C29.19854736 43.37688721 29.62756348 44.39049316 30.06958008 45.43481445 C31 48 31 48 31 51 C27.7 51 24.4 51 21 51 C18 43.25 18 43.25 18 41 C10.41 41 2.82 41 -5 41 C-5.66 44.3 -6.32 47.6 -7 51 C-10.96 51 -14.92 51 -19 51 C-17.30840362 45.07941268 -15.43726057 39.38083371 -13.09765625 33.6875 C-11.87841651 30.70231516 -10.71689718 27.69834156 -9.5625 24.6875 C-9.14484375 23.59824219 -8.7271875 22.50898438 -8.296875 21.38671875 C-7.86890625 20.26910156 -7.4409375 19.15148437 -7 18 C-6.1046672 15.66647456 -5.20884618 13.33313637 -4.3125 11 C-3.91675781 9.96875 -3.52101563 8.9375 -3.11328125 7.875 C-2.09382998 5.24231181 -1.05429911 2.61889824 0 0 Z " fill="#1CD3CC" transform="translate(284,359)"/>
<path d="M0 0 C9.3740625 -0.0309375 9.3740625 -0.0309375 18.9375 -0.0625 C20.91226318 -0.071604 22.88702637 -0.08070801 24.92163086 -0.09008789 C26.47770113 -0.09300705 28.03377216 -0.09555561 29.58984375 -0.09765625 C30.81290222 -0.1053302 30.81290222 -0.1053302 32.06066895 -0.11315918 C34.04080523 -0.1134694 36.02084654 -0.06238096 38 0 C39 1 39 1 39 10 C29.1 10 19.2 10 9 10 C9 13.96 9 17.92 9 22 C16.26 22 23.52 22 31 22 C31 24.97 31 27.94 31 31 C24.07 31 17.14 31 10 31 C10 34.63 10 38.26 10 42 C19.57 42 29.14 42 39 42 C39 45.3 39 48.6 39 52 C26.13 52 13.26 52 0 52 C0 34.84 0 17.68 0 0 Z " fill="#1CD1CA" transform="translate(416,358)"/>
<path d="M0 0 C4.24495687 -0.84037217 7.78935753 -1.10939083 12 0 C14.99790312 3.13943503 17.09468312 6.32396453 19.2578125 10.05859375 C20.68030158 13.06584296 20.68030158 13.06584296 23 14 C23.26941406 13.27425781 23.53882813 12.54851562 23.81640625 11.80078125 C25.76951974 7.17905724 28.09420256 3.21815705 32 0 C35.78563603 -0.75305663 39.19615958 -0.55716288 43 0 C40.97922258 3.70081485 38.92892778 7.2037294 36.38671875 10.5703125 C35.94392578 11.15683594 35.50113281 11.74335938 35.04492188 12.34765625 C34.12898665 13.54693835 33.20425901 14.73954924 32.27148438 15.92578125 C29.65789242 19.29651107 29.65789242 19.29651107 29.16918945 23.38183594 C30.13776242 26.43413581 31.50100762 28.57705864 33.34375 31.1953125 C34.01277344 32.15824219 34.68179688 33.12117188 35.37109375 34.11328125 C36.07363281 35.10714844 36.77617187 36.10101563 37.5 37.125 C38.88852063 39.10459729 40.27408151 41.08627489 41.65625 43.0703125 C42.27306641 43.94445801 42.88988281 44.81860352 43.52539062 45.71923828 C45 48 45 48 46 51 C41.71 51 37.42 51 33 51 C32.34 49.35 31.68 47.7 31 46 C29.73670747 43.88646599 28.42074241 41.80380417 27.0625 39.75 C26.02802734 38.16445313 26.02802734 38.16445313 24.97265625 36.546875 C23.18662717 33.75310888 23.18662717 33.75310888 20 33 C19.79375 33.66 19.5875 34.32 19.375 35 C17.80976988 38.41504753 15.78601653 41.02533951 13.4375 43.9375 C11.64241451 46.34729457 11.64241451 46.34729457 10 51 C6.04 51 2.08 51 -2 51 C-0.41684678 47.04211696 0.89659221 44.47499785 3.29296875 41.09375 C3.92267578 40.18496094 4.55238281 39.27617187 5.20117188 38.33984375 C6.52925178 36.44109431 7.86525772 34.54786501 9.20898438 32.66015625 C9.83482422 31.75136719 10.46066406 30.84257812 11.10546875 29.90625 C11.68449951 29.08447266 12.26353027 28.26269531 12.86010742 27.41601562 C14.27219863 24.42307183 14.02723911 23.10023763 13 20 C11.33376475 17.09610319 11.33376475 17.09610319 9.25 14.1875 C6.04342053 9.52181153 2.96676066 4.82098607 0 0 Z " fill="#1CD4CC" transform="translate(461,359)"/>
<path d="M0 0 C0.83958252 -0.00128906 1.67916504 -0.00257813 2.54418945 -0.00390625 C8.90451217 0.10444888 14.16976953 1.16170533 19.75 4.375 C18.56129032 9.59451613 18.56129032 9.59451613 15.75 11.375 C13.41360219 11.06387165 11.08073896 10.7260149 8.75 10.375 C6.04038505 10.2124231 3.33896792 10.19006519 0.625 10.1875 C-0.06464844 10.17525391 -0.75429687 10.16300781 -1.46484375 10.15039062 C-5.49544113 10.13883059 -8.69389045 10.41458063 -12.25 12.375 C-15.08203629 16.62305443 -14.5802592 20.25611269 -14.5625 25.25 C-14.57861328 26.14847656 -14.59472656 27.04695313 -14.61132812 27.97265625 C-14.61504857 33.01013504 -14.37339399 36.21574624 -11.25 40.375 C-10.92 41.365 -10.59 42.355 -10.25 43.375 C-7.18696422 43.45615993 -4.12609185 43.51557409 -1.0625 43.5625 C-0.19818359 43.58763672 0.66613281 43.61277344 1.55664062 43.63867188 C6.62439382 43.69692191 9.48537205 43.34542641 13.75 40.375 C18.01826873 40.375 18.68882432 40.75113513 21.75 43.375 C21.36256127 45.83052385 21.05405354 47.08575932 19.2265625 48.82421875 C18.61554688 49.23285156 18.00453125 49.64148438 17.375 50.0625 C16.46621094 50.68705078 16.46621094 50.68705078 15.5390625 51.32421875 C11.0605702 53.9545996 6.58602955 53.59434536 1.5625 53.625 C0.73685547 53.645625 -0.08878906 53.66625 -0.93945312 53.6875 C-7.36525651 53.7280094 -13.18937414 53.03275369 -18.23828125 48.6484375 C-25.02219448 38.92282738 -26.18755019 30.21638731 -25.25 18.375 C-24.13669953 12.21301136 -22.10710772 8.48486038 -17.25 4.375 C-16.59 3.715 -15.93 3.055 -15.25 2.375 C-10.16854389 0.17719229 -5.44347216 -0.00860203 0 0 Z " fill="#1CD4CD" transform="translate(241.25,357.625)"/>
<path d="M0 0 C6.07324543 1.83567268 11.96280963 3.62235737 15.2109375 9.3515625 C16.74465025 12.54565531 18.02744537 15.83804308 19.27783203 19.15185547 C26.3771841 37.32024464 41.6339427 52.03184294 58 62 C56.6184028 64.7631944 55.07820391 65.0286058 52.25 66.1875 C51.38890625 66.55230469 50.5278125 66.91710937 49.640625 67.29296875 C46.55538617 68.11904601 45.01648982 68.01818426 42 67 C36.129825 63.21553027 31.16329746 58.42292453 26.71875 53.06640625 C24.84045788 50.80818686 22.86282977 48.66213574 20.875 46.5 C12 36.53720817 12 36.53720817 12 32 C11.34 32 10.68 32 10 32 C7.13108613 25.4442266 4.4962581 18.83457776 2.1875 12.0625 C1.76855469 10.83660156 1.34960938 9.61070312 0.91796875 8.34765625 C0.09706827 5.3539894 -0.20410709 3.07326965 0 0 Z " fill="#203747" transform="translate(355,247)"/>
<path d="M0 0 C3.0625 1.5625 3.0625 1.5625 5 3 C1.50748638 6.65390519 -2.08670828 9.63806523 -6.1875 12.625 C-19.48212957 22.62943972 -29.23749901 35.40150595 -35 51 C-37.19273933 56.74763492 -38.7953045 60.94527852 -44.625 63.5625 C-46.07083128 64.07816337 -47.52879497 64.56194457 -49 65 C-50.485 65.495 -50.485 65.495 -52 66 C-50.48626234 43.29393505 -35.80042089 20.78227361 -19 6 C-12.83724583 0.64438621 -8.19819902 -2.75962998 0 0 Z " fill="#223345" transform="translate(407,139)"/>
<path d="M0 0 C4.2384375 -0.0928125 4.2384375 -0.0928125 8.5625 -0.1875 C9.43849854 -0.21481201 10.31449707 -0.24212402 11.21704102 -0.27026367 C16.5708077 -0.32649183 20.32023772 0.31982727 25 3 C28.01575027 6.46437427 27.33003784 11.5705784 27.3125 15.9375 C27.32861328 16.73607422 27.34472656 17.53464844 27.36132812 18.35742188 C27.365205 23.03680593 27.14282816 26.28201374 24 30 C19.53024438 33.8805223 14.78313499 33.34898125 9.1875 33.1875 C6.155625 33.125625 3.12375 33.06375 0 33 C0 22.11 0 11.22 0 0 Z " fill="#203443" transform="translate(375,368)"/>
<path d="M0 0 C2.03435531 3.72965139 3 5.66905042 3 10 C3.66 10 4.32 10 5 10 C6.06449583 11.73282986 7.04962135 13.51454808 8 15.3125 C16.28096831 29.85134291 29.05225983 40.68408661 45 46 C43.813687 49.55893899 42.78953229 50.17667665 39.75 52.25 C38.98171875 52.79140625 38.2134375 53.3328125 37.421875 53.890625 C34.37378268 55.28684793 33.14800672 55.06397746 30 54 C11.51544616 44.71392082 -2.83944489 27.11392616 -10.3359375 8.12890625 C-11 6 -11 6 -11 3 C-9.73160474 2.49384702 -8.46016898 1.99530901 -7.1875 1.5 C-6.12595703 1.08234375 -6.12595703 1.08234375 -5.04296875 0.65625 C-3 0 -3 0 0 0 Z " fill="#203747" transform="translate(388,250)"/>
<path d="M0 0 C4.81385577 0.61267255 8.00117746 3.07095051 11.4375 6.4375 C11.4375 7.0975 11.4375 7.7575 11.4375 8.4375 C9.6121875 9.1490625 9.6121875 9.1490625 7.75 9.875 C-10.02084488 17.82290543 -23.86328487 32.28605928 -31.125 50.3125 C-31.62031339 51.68176635 -32.10682349 53.05453774 -32.5625 54.4375 C-36.36161118 53.71909908 -39.90908827 52.71194595 -43.5625 51.4375 C-44.22185853 46.16263174 -42.65439283 43.54001746 -39.80859375 39.33984375 C-38.37069167 37.14467663 -37.41429994 34.91546345 -36.5625 32.4375 C-35.9025 32.4375 -35.2425 32.4375 -34.5625 32.4375 C-34.31628906 31.54675781 -34.07007813 30.65601563 -33.81640625 29.73828125 C-31.72590576 24.23525035 -27.5891818 20.62853615 -23.5625 16.4375 C-22.83417969 15.63441406 -22.10585938 14.83132812 -21.35546875 14.00390625 C-16.03466531 8.31879555 -10.489765 4.9011325 -3.5625 1.4375 C-2.5625 0.4375 -2.5625 0.4375 0 0 Z " fill="#223345" transform="translate(420.5625,147.5625)"/>
<path d="M0 0 C8.17031598 3.96317252 16.06396021 8.24722643 23.875 12.875 C25.96586953 14.1046366 28.05701437 15.33380522 30.1484375 16.5625 C31.14713867 17.1503125 32.14583984 17.738125 33.17480469 18.34375 C38.75359832 21.61427679 44.37439089 24.81083427 50 28 C49.40716379 31.39192363 48.23256811 33.2107757 45.9375 35.75 C45.38964844 36.36359375 44.84179688 36.9771875 44.27734375 37.609375 C43.64505859 38.29773438 43.64505859 38.29773438 43 39 C29.43087621 36.96717247 16.64043187 27.20158123 8.68066406 16.47290039 C3 8.54085252 3 8.54085252 3 6 C2.34 6 1.68 6 1 6 C0.67 4.02 0.34 2.04 0 0 Z " fill="#213747" transform="translate(397,252)"/>
<path d="M0 0 C1.95703125 1.609375 1.95703125 1.609375 3.8125 3.75 C4.43769531 4.44609375 5.06289063 5.1421875 5.70703125 5.859375 C7 8 7 8 6.78955078 10.05029297 C6.52899902 10.69369629 6.26844727 11.33709961 6 12 C4.17209716 12.73116113 2.33454877 13.44357993 0.46533203 14.06152344 C-4.51580144 15.95768872 -8.99677616 18.90377944 -13.5625 21.625 C-14.61646973 22.24584473 -15.67043945 22.86668945 -16.75634766 23.50634766 C-21.46446859 26.28485181 -26.15722417 29.08769224 -30.83203125 31.921875 C-31.52675537 32.34259277 -32.22147949 32.76331055 -32.93725586 33.19677734 C-34.19754486 33.96308133 -35.4550414 34.7340034 -36.70922852 35.51025391 C-40.78341303 38 -40.78341303 38 -43 38 C-41.56884757 26.55078058 -32.36662468 17.22018702 -23.765625 10.16796875 C-22 9 -22 9 -19.75 8.125 C-17.25036708 7.1024229 -15.26151086 5.95382841 -13 4.5 C-8.55049561 1.66469551 -5.37957546 0 0 0 Z " fill="#233649" transform="translate(441,161)"/>
<path d="M0 0 C3.97420335 1.99867702 6.53668287 4.3050243 9 8 C9.63704424 12.17617889 9.76429728 14.5525045 7.78515625 18.30078125 C5.37088274 21.49898357 3.46031541 23.64852657 -0.515625 24.60546875 C-5.34509039 24.75729326 -9.26584014 24.28153442 -13 21 C-15.80479456 17.61490311 -16.63872273 14.48790477 -16.49609375 10.06640625 C-15.57136894 6.21459974 -12.89231952 3.58510424 -10 1 C-6.75859402 -0.62070299 -3.50303137 -0.57437091 0 0 Z " fill="#223547" transform="translate(272,423)"/>
<path d="M0 0 C12.86206897 0 12.86206897 0 17 3 C19.38612004 5.86334405 19.9572247 7.67001914 20.4375 11.375 C19.87521021 16.03397252 18.79348608 18.22501881 16 22 C13.25 22.9375 13.25 22.9375 11 23 C11 23.66 11 24.32 11 25 C7.37 25 3.74 25 0 25 C0 16.75 0 8.5 0 0 Z " fill="#23394D" transform="translate(384,423)"/>
<path d="M0 0 C12.86206897 0 12.86206897 0 17 3 C19.42166168 5.90599402 19.96330364 7.66361668 20.375 11.4375 C19.9657902 15.32499306 19.0709101 17.70188392 17 21 C14 23 14 23 11 23 C11 23.66 11 24.32 11 25 C7.37 25 3.74 25 0 25 C0 16.75 0 8.5 0 0 Z " fill="#23394D" transform="translate(42,423)"/>
<path d="M0 0 C1.39786424 3.80478281 0.52946364 6.44894306 -0.4375 10.3125 C-4.59148612 29.72736203 -2.67938832 51.39355711 0.63623047 70.77685547 C1.19202412 74.17353798 1.59583569 77.58226101 2 81 C-2.42099727 78.78950136 -3.50793881 71.42926342 -5 67 C-11.69928799 46.32188275 -9.67418014 20.77087906 -1 1 C-0.67 0.67 -0.34 0.34 0 0 Z " fill="#223B4D" transform="translate(289,187)"/>
<path d="M0 0 C3.10439786 -0.0538854 6.20786307 -0.09361739 9.3125 -0.125 C10.19357422 -0.14175781 11.07464844 -0.15851563 11.98242188 -0.17578125 C12.82998047 -0.18222656 13.67753906 -0.18867188 14.55078125 -0.1953125 C15.72120972 -0.21102295 15.72120972 -0.21102295 16.9152832 -0.22705078 C19 0 19 0 22 2 C22.36328125 4.53125 22.36328125 4.53125 22.3125 7.5 C22.30863281 8.4796875 22.30476563 9.459375 22.30078125 10.46875 C22 13 22 13 20 15 C17.93701172 15.22705078 17.93701172 15.22705078 15.4296875 15.1953125 C14.53378906 15.18886719 13.63789063 15.18242187 12.71484375 15.17578125 C11.77769531 15.15902344 10.84054687 15.14226562 9.875 15.125 C8.93011719 15.11597656 7.98523438 15.10695313 7.01171875 15.09765625 C4.67437173 15.07404668 2.33715451 15.03817494 0 15 C0 10.05 0 5.1 0 0 Z " fill="#203241" transform="translate(329,368)"/>
<path d="M0 0 C1.88332031 -0.07347656 1.88332031 -0.07347656 3.8046875 -0.1484375 C7.125 0.375 7.125 0.375 9.0859375 2.70703125 C10.63259314 6.67833125 9.68082966 9.60645108 8.4375 13.5625 C7.85286063 15.7121308 7.85286063 15.7121308 10.125 18.375 C10.25 21.5625 10.25 21.5625 10.125 24.375 C9.465 24.375 8.805 24.375 8.125 24.375 C7.9290625 23.80910156 7.733125 23.24320312 7.53125 22.66015625 C6.57379827 20.31192334 5.67485 18.38895343 4.125 16.375 C1.28738823 15.3298491 -0.79290709 15.375 -3.875 15.375 C-3.875 18.345 -3.875 21.315 -3.875 24.375 C-5.195 24.705 -6.515 25.035 -7.875 25.375 C-7.90386984 21.39584841 -7.92175406 17.41672347 -7.9375 13.4375 C-7.94587891 12.30119141 -7.95425781 11.16488281 -7.96289062 9.99414062 C-7.96611328 8.91455078 -7.96933594 7.83496094 -7.97265625 6.72265625 C-7.97789307 5.72242432 -7.98312988 4.72219238 -7.98852539 3.69165039 C-7.75274855 -1.11971833 -4.07240939 0.10826446 0 0 Z " fill="#3872A5" transform="translate(337.875,422.625)"/>
<path d="M0 0 C1.65 0 3.3 0 5 0 C5 7.92 5 15.84 5 24 C3.68 24 2.36 24 1 24 C0.505 17.565 0.505 17.565 0 11 C-2.00448027 14.34080045 -3.43290354 16.78768136 -4.6875 20.3125 C-5.120625 21.529375 -5.55375 22.74625 -6 24 C-7.8671875 23.73046875 -7.8671875 23.73046875 -10 23 C-11.1953125 21.36328125 -11.1953125 21.36328125 -12.125 19.3125 C-12.43695312 18.64863281 -12.74890625 17.98476563 -13.0703125 17.30078125 C-14.16959847 14.58027943 -15.07212286 11.78363141 -16 9 C-16.33 13.95 -16.66 18.9 -17 24 C-17.99 24 -18.98 24 -20 24 C-20 16.41 -20 8.82 -20 1 C-18.35 1 -16.7 1 -15 1 C-14.73445312 1.75925781 -14.46890625 2.51851563 -14.1953125 3.30078125 C-13.84210937 4.29464844 -13.48890625 5.28851563 -13.125 6.3125 C-12.77695312 7.29863281 -12.42890625 8.28476562 -12.0703125 9.30078125 C-11.04694076 12.15594377 -11.04694076 12.15594377 -9 15 C-9 15.99 -9 16.98 -9 18 C-8.34 18 -7.68 18 -7 18 C-6.773125 17.071875 -6.54625 16.14375 -6.3125 15.1875 C-4.8165122 9.88056519 -2.35432787 4.96924929 0 0 Z " fill="#3A78AE" transform="translate(545,423)"/>
<path d="M0 0 C2.43375 -0.061875 4.8675 -0.12375 7.375 -0.1875 C8.52234619 -0.22846802 8.52234619 -0.22846802 9.69287109 -0.27026367 C11.46407019 -0.2922324 13.23492083 -0.14874263 15 0 C17.47942811 3.71914217 17.32231595 6.69664645 17 11 C16.690625 12.1446875 16.690625 12.1446875 16.375 13.3125 C16.25125 13.869375 16.1275 14.42625 16 15 C16.99 16.485 16.99 16.485 18 18 C18.125 21.1875 18.125 21.1875 18 24 C17.01 24 16.02 24 15 24 C14.5978125 22.329375 14.5978125 22.329375 14.1875 20.625 C13.34190981 16.78159049 13.34190981 16.78159049 10 15 C7.67612053 14.60612212 5.34206251 14.26513915 3 14 C3 17.63 3 21.26 3 25 C2.01 25 1.02 25 0 25 C0 16.75 0 8.5 0 0 Z " fill="#3F85C1" transform="translate(663,423)"/>
<path d="M0 0 C12.35310803 -0.49412432 12.35310803 -0.49412432 15.3984375 1.83203125 C17.55801309 4.75535918 17.43684817 6.43240661 17 10 C16 12.875 16 12.875 15 15 C15.66 15.66 16.32 16.32 17 17 C17.125 20.625 17.125 20.625 17 24 C16.34 24 15.68 24 15 24 C14.5359375 22.329375 14.5359375 22.329375 14.0625 20.625 C13.34029672 18.64496329 13.34029672 18.64496329 12 17 C8.95451132 15.74184599 6.31089965 15.43185648 3 15 C3 17.97 3 20.94 3 24 C2.01 24 1.02 24 0 24 C0 16.08 0 8.16 0 0 Z " fill="#3B7AB1" transform="translate(420,423)"/>
<path d="M0 0 C2.43375 -0.061875 4.8675 -0.12375 7.375 -0.1875 C8.52234619 -0.22846802 8.52234619 -0.22846802 9.69287109 -0.27026367 C11.46407019 -0.2922324 13.23492083 -0.14874263 15 0 C17.30163882 3.45245824 17.34490322 4.94738713 17 9 C16.34 9.66 15.68 10.32 15 11 C15.32707568 13.37129865 16.12567683 15.29571019 17.0625 17.5 C18 20 18 20 18 24 C16.68 23.67 15.36 23.34 14 23 C13.34 20.69 12.68 18.38 12 16 C7.545 15.01 7.545 15.01 3 14 C3 16.97 3 19.94 3 23 C2.01 23 1.02 23 0 23 C0 15.41 0 7.82 0 0 Z " fill="#4087C4" transform="translate(78,424)"/>
<path d="M0 0 C1.65 0 3.3 0 5 0 C5.40992188 1.12019531 5.81984375 2.24039062 6.2421875 3.39453125 C6.78625401 4.867263 7.33053611 6.33991511 7.875 7.8125 C8.14441406 8.55048828 8.41382813 9.28847656 8.69140625 10.04882812 C8.95566406 10.76103516 9.21992188 11.47324219 9.4921875 12.20703125 C9.85352783 13.18893433 9.85352783 13.18893433 10.22216797 14.19067383 C11.05526168 16.27895937 11.05526168 16.27895937 13 19 C13.125 21.6875 13.125 21.6875 13 24 C12.01 24 11.02 24 10 24 C9.67 22.68 9.34 21.36 9 20 C4.71 19.67 0.42 19.34 -4 19 C-4.33 20.65 -4.66 22.3 -5 24 C-5.99 24 -6.98 24 -8 24 C-7.66071168 17.89281023 -6.08363742 13.72383539 -3.2109375 8.34375 C-1.81621428 5.6442857 -0.84413129 2.9160899 0 0 Z " fill="#3E83BE" transform="translate(495,423)"/>
<path d="M0 0 C5.61 0 11.22 0 17 0 C17 1.32 17 2.64 17 4 C12.71 4 8.42 4 4 4 C4 6.31 4 8.62 4 11 C7.3 11 10.6 11 14 11 C14 12.32 14 13.64 14 15 C10.7 15 7.4 15 4 15 C4 16.98 4 18.96 4 21 C8.29 21 12.58 21 17 21 C17 22.32 17 23.64 17 25 C11.39 25 5.78 25 0 25 C0 16.75 0 8.5 0 0 Z " fill="#3A78AD" transform="translate(167,423)"/>
<path d="M0 0 C5.94 0 11.88 0 18 0 C17.67 1.32 17.34 2.64 17 4 C12.71 4 8.42 4 4 4 C4 6.31 4 8.62 4 11 C7.3 11 10.6 11 14 11 C14 12.32 14 13.64 14 15 C10.7 15 7.4 15 4 15 C4 16.98 4 18.96 4 21 C8.62 21 13.24 21 18 21 C18 21.99 18 22.98 18 24 C12.06 24 6.12 24 0 24 C0 16.08 0 8.16 0 0 Z " fill="#3B7AB0" transform="translate(453,423)"/>
<path d="M0 0 C1.2065625 0.0309375 1.2065625 0.0309375 2.4375 0.0625 C3.77621641 3.51877381 5.10755392 6.97784297 6.4375 10.4375 C6.8190625 11.42234375 7.200625 12.4071875 7.59375 13.421875 C7.9546875 14.36289062 8.315625 15.30390625 8.6875 16.2734375 C9.02265625 17.14274902 9.3578125 18.01206055 9.703125 18.90771484 C10.4375 21.0625 10.4375 21.0625 10.4375 23.0625 C9.4475 23.0625 8.4575 23.0625 7.4375 23.0625 C7.1075 21.0825 6.7775 19.1025 6.4375 17.0625 C2.1475 17.0625 -2.1425 17.0625 -6.5625 17.0625 C-7.2225 19.0425 -7.8825 21.0225 -8.5625 23.0625 C-9.2225 23.0625 -9.8825 23.0625 -10.5625 23.0625 C-7.16986529 0.17487476 -7.16986529 0.17487476 0 0 Z " fill="#4189C7" transform="translate(636.5625,423.9375)"/>
<path d="M0 0 C12.86206897 0 12.86206897 0 17 3 C19.42166168 5.90599402 19.96330364 7.66361668 20.375 11.4375 C19.9657902 15.32499306 19.0709101 17.70188392 17 21 C14 23 14 23 11 23 C11 23.66 11 24.32 11 25 C7.37 25 3.74 25 0 25 C0 16.75 0 8.5 0 0 Z M3 3 C3 9.27 3 15.54 3 22 C5.97 22 8.94 22 12 22 C12 21.34 12 20.68 12 20 C12.66 20 13.32 20 14 20 C16.23901826 17.15816913 16.98603594 15.0868875 17.5625 11.5 C16.9568065 7.73124044 15.9667951 6.32964799 13.09375 3.84765625 C10.14058067 2.49964865 10.14058067 2.49964865 3 3 Z " fill="#3A78AD" transform="translate(42,423)"/>
<path d="M0 0 C3.97420335 1.99867702 6.53668287 4.3050243 9 8 C9.63704424 12.17617889 9.76429728 14.5525045 7.78515625 18.30078125 C5.37088274 21.49898357 3.46031541 23.64852657 -0.515625 24.60546875 C-5.34509039 24.75729326 -9.26584014 24.28153442 -13 21 C-15.80479456 17.61490311 -16.63872273 14.48790477 -16.49609375 10.06640625 C-15.57136894 6.21459974 -12.89231952 3.58510424 -10 1 C-6.75859402 -0.62070299 -3.50303137 -0.57437091 0 0 Z M-13 8 C-13.95271277 12.18181888 -13.40472331 15.15536004 -11.5625 19 C-8.30854091 21.53967539 -6.24198746 21.67612869 -2.1953125 21.40234375 C1.36922367 20.74905687 2.83376517 19.93489881 5 17 C5.69796447 13.52748256 5.70361001 10.47191171 5 7 C2.87433604 4.21006605 1.48406426 3.3081827 -1.9375 2.59765625 C-7.21569179 2.18779666 -9.97088113 3.45632169 -13 8 Z " fill="#4087C5" transform="translate(272,423)"/>
<path d="M0 0 C12.86206897 0 12.86206897 0 17 3 C19.38612004 5.86334405 19.9572247 7.67001914 20.4375 11.375 C19.87521021 16.03397252 18.79348608 18.22501881 16 22 C13.25 22.9375 13.25 22.9375 11 23 C11 23.66 11 24.32 11 25 C7.37 25 3.74 25 0 25 C0 16.75 0 8.5 0 0 Z M3 3 C3 9.27 3 15.54 3 22 C5.97 22 8.94 22 12 22 C12 21.34 12 20.68 12 20 C12.99 19.67 13.98 19.34 15 19 C17.51635926 15.55656101 17.37595528 12.1355081 17 8 C15.76913958 6.0153062 15.76913958 6.0153062 14 5 C13.34 5 12.68 5 12 5 C12 4.34 12 3.68 12 3 C9.03 3 6.06 3 3 3 Z " fill="#3A78AD" transform="translate(384,423)"/>
<path d="M0 0 C3 1.3125 3 1.3125 5 3 C5 3.99 5 4.98 5 6 C4.505 5.835 4.01 5.67 3.5 5.5 C-1.05963297 4.58807341 -5.55868337 4.51956112 -10 6 C-10.96070434 8.88211302 -11.10581883 10.69850044 -11.0625 13.6875 C-11.05347656 14.49574219 -11.04445313 15.30398438 -11.03515625 16.13671875 C-11.02355469 16.75160156 -11.01195312 17.36648438 -11 18 C-6.9493447 20.26945196 -3.5743124 20.64943942 1 20 C3.34261608 18.62073227 3.34261608 18.62073227 5 17 C5.66 17 6.32 17 7 17 C5.70199047 19.89555971 4.50231006 22.01923572 2 24 C-1.71774007 24.69060187 -5.27135535 24.59876045 -9 24 C-12.1875 21.625 -12.1875 21.625 -14 19 C-14 18.34 -14 17.68 -14 17 C-14.66 17 -15.32 17 -16 17 C-16.49303103 12.97357995 -16.86992855 9.4579358 -14.734375 5.87890625 C-10.26564116 0.66176796 -7.0137083 -0.76440033 0 0 Z " fill="#4189C8" transform="translate(601,423)"/>
<path d="M0 0 C0.99 0 1.98 0 3 0 C6.96079405 9.55589633 6.96079405 9.55589633 8.125 14.0625 C8.41375 15.031875 8.7025 16.00125 9 17 C9.66 17.33 10.32 17.66 11 18 C11.18175781 17.3709375 11.36351562 16.741875 11.55078125 16.09375 C13.15552584 10.62938892 14.93585454 5.30780262 17 0 C17.99 0 18.98 0 20 0 C19.49547791 8.74504957 15.95399954 16.27590788 12 24 C10.35 24 8.7 24 7 24 C6.16142312 21.39741676 5.32896656 18.79314353 4.5 16.1875 C4.26152344 15.44951172 4.02304688 14.71152344 3.77734375 13.95117188 C2.80059864 10.86744804 2 8.25504191 2 5 C1.34 5 0.68 5 0 5 C0 3.35 0 1.7 0 0 Z " fill="#3F85C2" transform="translate(131,423)"/>
<path d="M0 0 C2.83374881 3.20336822 3.5205537 5.78087253 4 10 C4.99 10.33 5.98 10.66 7 11 C7.33 13.31 7.66 15.62 8 18 C3.05 18 -1.9 18 -7 18 C-6.2748802 13.64928118 -5.81068698 11.09254203 -4.0625 7.3125 C-3.72347656 6.56613281 -3.38445312 5.81976563 -3.03515625 5.05078125 C-2 3 -2 3 0 0 Z " fill="#204754" transform="translate(290,373)"/>
<path d="M0 0 C2.25 0.125 2.25 0.125 5 1 C9 6.08108108 9 6.08108108 9 9 C11.31305983 6.84646154 12.97697609 5.0422105 14.5 2.25 C14.995 1.5075 15.49 0.765 16 0 C17.32 0 18.64 0 20 0 C18.99016155 2.17503665 17.97221019 4.03589517 16.5 5.9375 C13.43969137 10.14542437 12.71299653 14.1862193 12.375 19.3125 C12.30023438 20.38113281 12.22546875 21.44976562 12.1484375 22.55078125 C12.09945312 23.35902344 12.05046875 24.16726563 12 25 C11.01 25 10.02 25 9 25 C8.99742187 24.154375 8.99484375 23.30875 8.9921875 22.4375 C8.7494726 15.31786292 8.1419236 10.83359605 3.27734375 5.48828125 C2 4 2 4 2 2 C1.34 2 0.68 2 0 2 C0 1.34 0 0.68 0 0 Z " fill="#3C7EB7" transform="translate(220,423)"/>
<path d="M0 0 C0.66 0 1.32 0 2 0 C2.07347656 1.68029297 2.07347656 1.68029297 2.1484375 3.39453125 C2.22347856 4.86721203 2.29902582 6.33986707 2.375 7.8125 C2.4059375 8.55048828 2.436875 9.28847656 2.46875 10.04882812 C2.67346148 13.81893115 2.86433827 15.79650741 5 19 C8.5 19.5 8.5 19.5 12 19 C14.48044315 15.27933528 14.44381173 12.13459526 14.625 7.8125 C14.68300781 6.68811523 14.68300781 6.68811523 14.7421875 5.54101562 C14.83628216 3.69440801 14.91922319 1.8472381 15 0 C15.66 0 16.32 0 17 0 C17.13539281 2.89740622 17.23426829 5.78845621 17.3125 8.6875 C17.35439453 9.50412109 17.39628906 10.32074219 17.43945312 11.16210938 C17.52872668 15.57222304 17.44267092 17.41453201 14.69921875 21.04296875 C12 23 12 23 8.5 23.625 C3.98117512 22.81806699 2.75784066 21.64746667 0 18 C-0.59558392 14.86826377 -0.47529243 11.86070008 -0.3125 8.6875 C-0.28994141 7.85154297 -0.26738281 7.01558594 -0.24414062 6.15429688 C-0.1855061 4.10208851 -0.09583215 2.05080798 0 0 Z " fill="#4492D5" transform="translate(297,424)"/>
<path d="M0 0 C0.33 0 0.66 0 1 0 C1 1.65 1 3.3 1 5 C3.97 5 6.94 5 10 5 C10.33 3.68 10.66 2.36 11 1 C11.103125 1.639375 11.20625 2.27875 11.3125 2.9375 C11.6528125 3.9584375 11.6528125 3.9584375 12 5 C12.99 5.33 13.98 5.66 15 6 C15.33 8.31 15.66 10.62 16 13 C15.01 13 14.02 13 13 13 C12.67 11.68 12.34 10.36 12 9 C7.71 8.67 3.42 8.34 -1 8 C-1.33 9.65 -1.66 11.3 -2 13 C-2.99 13 -3.98 13 -5 13 C-4.61581313 7.33324362 -4.17784019 4.17784019 0 0 Z " fill="#418CCC" transform="translate(492,434)"/>
<path d="M0 0 C3.96 0 7.92 0 12 0 C12 0.33 12 0.66 12 1 C9.03 1 6.06 1 3 1 C3 4.3 3 7.6 3 11 C6.3 11 9.6 11 13 11 C13 11.66 13 12.32 13 13 C9.7 13 6.4 13 3 13 C3 16.63 3 20.26 3 24 C2.01 24 1.02 24 0 24 C0 16.08 0 8.16 0 0 Z " fill="#418AC9" transform="translate(330,424)"/>
<path d="M0 0 C1.62463842 -0.05395478 3.24978541 -0.09277195 4.875 -0.125 C5.77992188 -0.14820313 6.68484375 -0.17140625 7.6171875 -0.1953125 C10 0 10 0 12 2 C11.6730244 4.61580479 11.17960932 6.64078137 10 9 C6.7 9 3.4 9 0 9 C0 6.03 0 3.06 0 0 Z " fill="#253F57" transform="translate(666,426)"/>
<path d="M0 0 C1.32 0 2.64 0 4 0 C4 7.92 4 15.84 4 24 C2.68 24 1.36 24 0 24 C0 16.08 0 8.16 0 0 Z " fill="#3A77AD" transform="translate(111,423)"/>
<path d="M0 0 C1.62463842 -0.05395478 3.24978541 -0.09277195 4.875 -0.125 C5.77992187 -0.14820313 6.68484375 -0.17140625 7.6171875 -0.1953125 C10 0 10 0 12 2 C11.44444444 6.55555556 11.44444444 6.55555556 10 8 C8.31391034 8.07205511 6.62499341 8.08386068 4.9375 8.0625 C4.01839844 8.05347656 3.09929687 8.04445313 2.15234375 8.03515625 C1.44207031 8.02355469 0.73179688 8.01195312 0 8 C0 5.36 0 2.72 0 0 Z " fill="#253D53" transform="translate(80,426)"/>
<path d="M0 0 C1.45792884 -0.05399736 2.91642712 -0.09279177 4.375 -0.125 C5.18710937 -0.14820313 5.99921875 -0.17140625 6.8359375 -0.1953125 C9 0 9 0 11 2 C11.1875 4.5625 11.1875 4.5625 11 7 C10 8 10 8 7.71484375 8.09765625 C6.34005859 8.08025391 6.34005859 8.08025391 4.9375 8.0625 C4.01839844 8.05347656 3.09929687 8.04445313 2.15234375 8.03515625 C1.44207031 8.02355469 0.73179687 8.01195312 0 8 C0 5.36 0 2.72 0 0 Z " fill="#23384D" transform="translate(423,426)"/>
<path d="M0 0 C3 1.3125 3 1.3125 5 3 C5 3.99 5 4.98 5 6 C4.505 5.835 4.01 5.67 3.5 5.5 C-1.05963297 4.58807341 -5.55868337 4.51956112 -10 6 C-10.80563638 8.10584438 -10.80563638 8.10584438 -11.1875 10.5625 C-11.34605469 11.38878906 -11.50460937 12.21507812 -11.66796875 13.06640625 C-11.77753906 13.70449219 -11.88710938 14.34257812 -12 15 C-12.33 15 -12.66 15 -13 15 C-13 12.36 -13 9.72 -13 7 C-13.99 7.495 -13.99 7.495 -15 8 C-12.23646064 0.96553617 -7.1044433 -1.20317185 0 0 Z " fill="#3D80BA" transform="translate(601,423)"/>
<path d="M0 0 C0.66 0 1.32 0 2 0 C2.19242742 4.70516077 1.7242456 8.6885177 0.62792969 13.25683594 C-2.74335138 27.37662279 -2.82543607 41.54731089 -3 56 C-3.33 56 -3.66 56 -4 56 C-4.58983666 23.88868724 -4.58983666 23.88868724 -1.55859375 11.8984375 C-0.97258531 8.85775035 -1.29664317 6.9737513 -2 4 C-1.0625 1.6875 -1.0625 1.6875 0 0 Z " fill="#3983B4" transform="translate(290,182)"/>
<path d="M0 0 C0.66 0.33 1.32 0.66 2 1 C1.40316406 1.45246094 0.80632812 1.90492188 0.19140625 2.37109375 C-8.6082499 9.28791114 -16.34263837 17.16068049 -24.17089844 25.13867188 C-26.43285126 27.44047757 -28.71357003 29.72253642 -31 32 C-24.65921458 18.40389279 -11.94319879 8.49567749 0 0 Z " fill="#4772BE" transform="translate(320,140)"/>
<path d="M0 0 C3.63 0 7.26 0 11 0 C11 0.33 11 0.66 11 1 C8.36 1.33 5.72 1.66 3 2 C2.67 4.97 2.34 7.94 2 11 C5.3 11 8.6 11 12 11 C12 11.66 12 12.32 12 13 C8.7 13 5.4 13 2 13 C2 16.3 2 19.6 2 23 C1.34 23 0.68 23 0 23 C0 15.41 0 7.82 0 0 Z " fill="#4595DA" transform="translate(420,424)"/>
<path d="M0 0 C2.97 0 5.94 0 9 0 C9 0.33 9 0.66 9 1 C6.69 1 4.38 1 2 1 C2 7.6 2 14.2 2 21 C5.63 20.67 9.26 20.34 13 20 C13 20.66 13 21.32 13 22 C10 23 10 23 0 23 C0 15.41 0 7.82 0 0 Z " fill="#4595DA" transform="translate(385,424)"/>
<path d="M0 0 C2.97 0 5.94 0 9 0 C9 0.33 9 0.66 9 1 C6.69 1 4.38 1 2 1 C2 7.6 2 14.2 2 21 C5.63 20.67 9.26 20.34 13 20 C13 20.66 13 21.32 13 22 C10 23 10 23 0 23 C0 15.41 0 7.82 0 0 Z " fill="#4594D8" transform="translate(43,424)"/>
<path d="M0 0 C4.29 0 8.58 0 13 0 C13 0.99 13 1.98 13 3 C9.37 2.67 5.74 2.34 2 2 C2.185625 3.60875 2.37125 5.2175 2.5625 6.875 C3.07703524 12.38481486 2.77080003 17.53324899 2 23 C1.34 23 0.68 23 0 23 C0 15.41 0 7.82 0 0 Z " fill="#4593D6" transform="translate(78,424)"/>
<path d="M0 0 C0.99 0 1.98 0 3 0 C6.96079405 9.55589633 6.96079405 9.55589633 8.125 14.0625 C8.41375 15.031875 8.7025 16.00125 9 17 C9.66 17.33 10.32 17.66 11 18 C11 18.66 11 19.32 11 20 C10.01 19.67 9.02 19.34 8 19 C7.34 19.66 6.68 20.32 6 21 C5.32815382 18.89748139 4.66269032 16.79292237 4 14.6875 C3.62875 13.51574219 3.2575 12.34398437 2.875 11.13671875 C2 8 2 8 2 5 C1.34 5 0.68 5 0 5 C0 3.35 0 1.7 0 0 Z " fill="#3A77AC" transform="translate(131,423)"/>
<path d="M0 0 C2.56529454 1.28264727 2.66499863 2.22772349 3.625 4.875 C3.88539063 5.57367188 4.14578125 6.27234375 4.4140625 6.9921875 C5 9 5 9 5 12 C2.03 12 -0.94 12 -4 12 C-3.5317879 7.22423661 -2.75668002 3.95523655 0 0 Z " fill="#23394E" transform="translate(636,427)"/>
<path d="M0 0 C3.3 0 6.6 0 10 0 C10.04254356 1.99954746 10.04080783 4.00041636 10 6 C9 7 9 7 6.93359375 7.09765625 C6.10988281 7.08605469 5.28617187 7.07445312 4.4375 7.0625 C3.61121094 7.05347656 2.78492188 7.04445313 1.93359375 7.03515625 C1.29550781 7.02355469 0.65742188 7.01195312 0 7 C0 4.69 0 2.38 0 0 Z " fill="#213243" transform="translate(334,427)"/>
<path d="M0 0 C0.66 0 1.32 0 2 0 C2.99 3.3 3.98 6.6 5 10 C4.01 10 3.02 10 2 10 C1.67 8.02 1.34 6.04 1 4 C-3.29 4 -7.58 4 -12 4 C-12.66 5.98 -13.32 7.96 -14 10 C-14.66 10 -15.32 10 -16 10 C-15.68064144 7.12577293 -15.07897089 5.13640427 -13.625 2.625 C-9.31856159 -0.04089045 -4.84089974 1.23213314 0 2 C0 1.34 0 0.68 0 0 Z " fill="#4390D2" transform="translate(642,437)"/>
<path d="M0 0 C4.62 0 9.24 0 14 0 C14.66 1.32 15.32 2.64 16 4 C12.79984144 5.06671952 11.11455706 4.94845472 7.8125 4.5625 C6.91144531 4.46066406 6.01039063 4.35882813 5.08203125 4.25390625 C4.39496094 4.17011719 3.70789063 4.08632813 3 4 C3 6.31 3 8.62 3 11 C5.97 11 8.94 11 12 11 C12 11.33 12 11.66 12 12 C8.7 12 5.4 12 2 12 C2.06510417 9.4609375 2.13020833 6.921875 2.1953125 4.3828125 C2.24324836 1.81193006 2.24324836 1.81193006 0 0 Z " fill="#366C9A" transform="translate(331,423)"/>
<path d="M0 0 C0.66 0.33 1.32 0.66 2 1 C-5.26 8.26 -12.52 15.52 -20 23 C-20 18.8175007 -17.67883523 17.1149109 -14.9375 14.25 C-14.43742432 13.71721436 -13.93734863 13.18442871 -13.42211914 12.63549805 C-11.95716092 11.0813541 -10.48130467 9.53855565 -9 8 C-7.90171875 6.85724609 -7.90171875 6.85724609 -6.78125 5.69140625 C-2.34872449 1.17436224 -2.34872449 1.17436224 0 0 Z " fill="#4D74C9" transform="translate(387,137)"/>
<path d="M0 0 C1.32 0 2.64 0 4 0 C4.33 1.98 4.66 3.96 5 6 C4.01 5.67 3.02 5.34 2 5 C2 10.94 2 16.88 2 23 C1.34 23 0.68 23 0 23 C0 15.41 0 7.82 0 0 Z " fill="#4492D5" transform="translate(525,424)"/>
<path d="M0 0 C1.32 0 2.64 0 4 0 C2.99016155 2.17503665 1.97221019 4.03589517 0.5 5.9375 C-2.56030863 10.14542437 -3.28700347 14.1862193 -3.625 19.3125 C-3.69976562 20.38113281 -3.77453125 21.44976562 -3.8515625 22.55078125 C-3.90054688 23.35902344 -3.94953125 24.16726563 -4 25 C-4.99 24.67 -5.98 24.34 -7 24 C-6.34 24 -5.68 24 -5 24 C-5.01160156 23.15695312 -5.02320313 22.31390625 -5.03515625 21.4453125 C-5.04417969 20.34960938 -5.05320313 19.25390625 -5.0625 18.125 C-5.07410156 17.03445313 -5.08570313 15.94390625 -5.09765625 14.8203125 C-5 12 -5 12 -4 10 C-4.99 9.67 -5.98 9.34 -7 9 C-6.401875 8.443125 -5.80375 7.88625 -5.1875 7.3125 C-2.89527309 5.08647805 -2.89527309 5.08647805 -1.5 2.25 C-0.7575 1.13625 -0.7575 1.13625 0 0 Z " fill="#3A77AC" transform="translate(236,423)"/>
<path d="M0 0 C0.66 0.33 1.32 0.66 2 1 C1.24976563 1.67804688 0.49953125 2.35609375 -0.2734375 3.0546875 C-7.03793297 9.19625422 -13.60176101 15.47436244 -20 22 C-20 16.48769085 -14.69361429 12.77366166 -11 9 C-7.50053684 5.70497284 -4.00141376 2.66760917 0 0 Z " fill="#447CBF" transform="translate(418,162)"/>
<path d="M0 0 C0.33 1.32 0.66 2.64 1 4 C1.66 4 2.32 4 3 4 C3.66 6.31 4.32 8.62 5 11 C2.03 11 -0.94 11 -4 11 C-3.5247412 9.35303396 -3.04468109 7.70745272 -2.5625 6.0625 C-2.29566406 5.14597656 -2.02882813 4.22945313 -1.75390625 3.28515625 C-1 1 -1 1 0 0 Z " fill="#223649" transform="translate(497,428)"/>
<path d="M0 0 C5.89255452 -0.51689075 8.86559396 -0.01804002 13.5546875 3.61328125 C15.58006891 5.5565526 16.9235082 7.19989574 17.1953125 10.04296875 C17.13020833 12.02864583 17.06510417 14.01432292 17 16 C16.67 16 16.34 16 16 16 C15.67 13.69 15.34 11.38 15 9 C14.67 10.98 14.34 12.96 14 15 C13.67 15 13.34 15 13 15 C12.9175 13.741875 12.835 12.48375 12.75 11.1875 C12.38123528 8.3283105 12.24371146 7.27981687 10.3125 5.0625 C7.93953569 3.84679816 7.93953569 3.84679816 4.875 3.5 C3.92625 3.335 2.9775 3.17 2 3 C1.34 2.01 0.68 1.02 0 0 Z " fill="#3770A1" transform="translate(264,423)"/>
<path d="M0 0 C1.31052767 4.30422506 0.45785552 7.9370534 -0.4375 12.25 C-0.58509766 12.99507812 -0.73269531 13.74015625 -0.88476562 14.5078125 C-1.2488694 16.34007665 -1.62341409 18.17026053 -2 20 C-2.66 19.01 -3.32 18.02 -4 17 C-4.66 17 -5.32 17 -6 17 C-5.57312017 15.10174715 -5.13300518 13.20646817 -4.6875 11.3125 C-4.44386719 10.25675781 -4.20023437 9.20101562 -3.94921875 8.11328125 C-3.00739175 5.02424372 -1.77627063 2.68182036 0 0 Z " fill="#253F56" transform="translate(289,187)"/>
<path d="M0 0 C0.66 0.33 1.32 0.66 2 1 C-10.44738834 15.02800908 -10.44738834 15.02800908 -14 18 C-14.66 18 -15.32 18 -16 18 C-14.6415798 14.95667235 -13.11536976 12.87690849 -10.7421875 10.546875 C-10.11699219 9.928125 -9.49179687 9.309375 -8.84765625 8.671875 C-8.19667969 8.03765625 -7.54570312 7.4034375 -6.875 6.75 C-6.21628906 6.1003125 -5.55757813 5.450625 -4.87890625 4.78125 C-3.25703357 3.18288273 -1.6306719 1.58938103 0 0 Z " fill="#2B4464" transform="translate(406,155)"/>
<path d="M0 0 C0.66 0.33 1.32 0.66 2 1 C-3.94 6.94 -9.88 12.88 -16 19 C-16 14.76641181 -13.57639709 12.97541337 -10.8125 10.0625 C-10.08836914 9.27456055 -10.08836914 9.27456055 -9.34960938 8.47070312 C-6.43336087 5.34307553 -3.41697361 2.59240228 0 0 Z " fill="#4674BD" transform="translate(400,151)"/>
<path d="M0 0 C0.94875 0.04125 1.8975 0.0825 2.875 0.125 C6.09765625 5.3984375 6.09765625 5.3984375 6.875 7.125 C6.545 7.785 6.215 8.445 5.875 9.125 C2.245 6.815 -1.385 4.505 -5.125 2.125 C-3.125 0.125 -3.125 0.125 0 0 Z " fill="#1F4956" transform="translate(321.125,297.875)"/>
<path d="M0 0 C0.66 0.33 1.32 0.66 2 1 C-3.28 6.28 -8.56 11.56 -14 17 C-14.66 16.67 -15.32 16.34 -16 16 C-10.96679794 10.22494276 -5.96260189 4.82082706 0 0 Z " fill="#2B4262" transform="translate(391,143)"/>
<path d="M0 0 C2.97 0 5.94 0 9 0 C8.67 0.99 8.34 1.98 8 3 C8.33 3.66 8.66 4.32 9 5 C6.03 4.67 3.06 4.34 0 4 C0 6.97 0 9.94 0 13 C-0.33 13 -0.66 13 -1 13 C-1.02708567 11.39592672 -1.04643483 9.7917215 -1.0625 8.1875 C-1.07410156 7.29417969 -1.08570312 6.40085937 -1.09765625 5.48046875 C-1 3 -1 3 0 0 Z " fill="#3976AA" transform="translate(81,434)"/>
<path d="M0 0 C2.08218362 -0.10832169 4.16599129 -0.18573541 6.25 -0.25 C7.99023438 -0.31960938 7.99023438 -0.31960938 9.765625 -0.390625 C13 0 13 0 15.40625 1.8125 C17.48356435 4.66371577 17.3133234 6.55344261 17 10 C16.67 10 16.34 10 16 10 C15.67 8.35 15.34 6.7 15 5 C13.75283203 4.83564453 13.75283203 4.83564453 12.48046875 4.66796875 C10.85044922 4.43013672 10.85044922 4.43013672 9.1875 4.1875 C8.10855469 4.03667969 7.02960938 3.88585937 5.91796875 3.73046875 C2.93559009 2.98387597 1.85776521 2.37924316 0 0 Z " fill="#3B78AE" transform="translate(420,423)"/>
<path d="M0 0 C0.33 0 0.66 0 1 0 C1.50604924 2.39469729 2.00499517 4.79051717 2.5 7.1875 C2.64308594 7.86103516 2.78617187 8.53457031 2.93359375 9.22851562 C3.68069842 12.87509793 4.17352282 16.27648957 4 20 C0.67285317 18.33642658 -0.00155543 15.133899 -1.3125 11.7890625 C-2.36817949 7.50636275 -1.45924056 4.08192967 0 0 Z " fill="#256074" transform="translate(287,248)"/>
<path d="M0 0 C0.66 0.33 1.32 0.66 2 1 C2 1.33 2 1.66 2 2 C4.64 2 7.28 2 10 2 C10 2.33 10 2.66 10 3 C8.3603125 3.2165625 8.3603125 3.2165625 6.6875 3.4375 C3.06877013 3.88288104 3.06877013 3.88288104 0 5 C-0.80563638 7.10584438 -0.80563638 7.10584438 -1.1875 9.5625 C-1.34605469 10.38878906 -1.50460937 11.21507812 -1.66796875 12.06640625 C-1.77753906 12.70449219 -1.88710938 13.34257812 -2 14 C-2.33 14 -2.66 14 -3 14 C-3 11.36 -3 8.72 -3 6 C-3.99 6.495 -3.99 6.495 -5 7 C-3.70700306 4.11562221 -2.34058637 2.12780579 0 0 Z " fill="#33638E" transform="translate(591,424)"/>
<path d="M0 0 C0.33 0.99 0.66 1.98 1 3 C5.62 3 10.24 3 15 3 C15 3.33 15 3.66 15 4 C10.71 4 6.42 4 2 4 C1.67 5.65 1.34 7.3 1 9 C0.01 9 -0.98 9 -2 9 C-1.125 1.125 -1.125 1.125 0 0 Z " fill="#3872A5" transform="translate(489,438)"/>
<path d="M0 0 C0.66 0 1.32 0 2 0 C1.01 3.63 0.02 7.26 -1 11 C-2.32 11.33 -3.64 11.66 -5 12 C-5.33 10.68 -5.66 9.36 -6 8 C-4.68 8 -3.36 8 -2 8 C-1.855625 6.865625 -1.71125 5.73125 -1.5625 4.5625 C-1 1 -1 1 0 0 Z " fill="#418ACA" transform="translate(541,435)"/>
<path d="M0 0 C2.30142435 1.78174788 3.80034391 3.16304165 4.48828125 6.046875 C4.72323102 8.0246611 4.86751458 10.01271872 5 12 C3.68 11.67 2.36 11.34 1 11 C-1.125 3.375 -1.125 3.375 0 0 Z " fill="#3B7BB2" transform="translate(91,436)"/>
<path d="M0 0 C2.70272533 2.87164566 3.94791837 4.30991841 4.25 8.3125 C4.1675 9.199375 4.085 10.08625 4 11 C3.01 11 2.02 11 1 11 C0.71125 9.88625 0.4225 8.7725 0.125 7.625 C-0.69241329 3.99708908 -0.69241329 3.99708908 -3 2 C-2.01 1.34 -1.02 0.68 0 0 Z " fill="#4087C4" transform="translate(677,436)"/>
<path d="M0 0 C2.02196167 2.02196167 2.67551358 3.25864486 3.6875 5.875 C3.95949219 6.55304688 4.23148437 7.23109375 4.51171875 7.9296875 C5.07336741 10.31107782 4.76694846 11.70430191 4 14 C3.67 13.01 3.34 12.02 3 11 C2.01 11.495 2.01 11.495 1 12 C0.67 10.35 0.34 8.7 0 7 C-0.66 7 -1.32 7 -2 7 C-1.67 5.68 -1.34 4.36 -1 3 C-0.67 3.33 -0.34 3.66 0 4 C0 2.68 0 1.36 0 0 Z " fill="#3872A5" transform="translate(500,425)"/>
<path d="M0 0 C0.99 0 1.98 0 3 0 C2.50769231 7.50769231 2.50769231 7.50769231 -0.0625 10 C-1.0215625 10.495 -1.0215625 10.495 -2 11 C-2.19622241 6.78121808 -1.80230168 3.82989106 0 0 Z " fill="#3C7CB4" transform="translate(148,423)"/>
<path d="M0 0 C1.875 2.0625 1.875 2.0625 3 4 C2.67 4.66 2.34 5.32 2 6 C0.02 5.01 -1.96 4.02 -4 3 C-4 2.34 -4 1.68 -4 1 C-6.97 1 -9.94 1 -13 1 C-13 0.67 -13 0.34 -13 0 C-8.39393881 -0.82909101 -4.53332803 -1.33939237 0 0 Z " fill="#3976AB" transform="translate(400,425)"/>
<path d="M0 0 C1.32 0.33 2.64 0.66 4 1 C3.67 5.62 3.34 10.24 3 15 C2.34 15 1.68 15 1 15 C0.67 10.05 0.34 5.1 0 0 Z " fill="#4492D6" transform="translate(228,432)"/>
<path d="M0 0 C4.08072342 0.55144911 4.91330796 0.91330796 8 4 C2.555 7.96 2.555 7.96 -3 12 C-3.66 11.67 -4.32 11.34 -5 11 C-2.03 8.69 0.94 6.38 4 4 C2.68 2.68 1.36 1.36 0 0 Z " fill="#4667B0" transform="translate(407,139)"/>
<path d="M0 0 C-1.29091941 2.8797433 -2.46131171 5.08036545 -5 7 C-7.4453125 6.92578125 -7.4453125 6.92578125 -10.125 6.3125 C-11.01445313 6.12300781 -11.90390625 5.93351562 -12.8203125 5.73828125 C-15 5 -15 5 -16 3 C-14.98679687 3.05220703 -14.98679687 3.05220703 -13.953125 3.10546875 C-12.61507812 3.14607422 -12.61507812 3.14607422 -11.25 3.1875 C-10.36828125 3.22230469 -9.4865625 3.25710938 -8.578125 3.29296875 C-5.00509727 2.88694287 -3.40083712 0 0 0 Z " fill="#3B79AF" transform="translate(608,440)"/>
<path d="M0 0 C3.28142356 2.1876157 3.4000472 2.41477888 4.125 6 C4.59205346 8.22874634 4.97778151 9.95556301 6 12 C5.34 12.66 4.68 13.32 4 14 C0.07260562 9.09075703 -0.43177893 6.26079448 0 0 Z " fill="#3D80BA" transform="translate(256,431)"/>
<path d="M0 0 C1.26026798 2.52053595 0.91874445 3.8542098 0.5625 6.625 C0.40974609 7.85089844 0.40974609 7.85089844 0.25390625 9.1015625 C0.17011719 9.72804688 0.08632813 10.35453125 0 11 C-0.99 11 -1.98 11 -3 11 C-3.08096803 9.54257537 -3.13917774 8.08387193 -3.1875 6.625 C-3.22230469 5.81289063 -3.25710938 5.00078125 -3.29296875 4.1640625 C-3.19628906 3.44992187 -3.09960938 2.73578125 -3 2 C-2.01 1.34 -1.02 0.68 0 0 Z " fill="#3E82BD" transform="translate(588,429)"/>
<path d="M0 0 C0.33 0 0.66 0 1 0 C1.3129725 5.2162083 0.85058429 8.56575777 -2 13 C-2.99 13.33 -3.98 13.66 -5 14 C-5.66 13.34 -6.32 12.68 -7 12 C-6.34 12 -5.68 12 -5 12 C-4.71125 11.195625 -4.4225 10.39125 -4.125 9.5625 C-3 7 -3 7 -1 6 C-0.34227572 2.97065509 -0.34227572 2.97065509 0 0 Z " fill="#3C7CB4" transform="translate(61,431)"/>
<path d="M0 0 C0.99 0 1.98 0 3 0 C3.66 3.63 4.32 7.26 5 11 C4.01 10.01 3.02 9.02 2 8 C2 7.01 2 6.02 2 5 C1.34 5 0.68 5 0 5 C0 3.35 0 1.7 0 0 Z " fill="#3F84BF" transform="translate(131,423)"/>
<path d="M0 0 C2 1.5625 2 1.5625 4 4 C4.25 7.75 4.25 7.75 4 11 C3.34 11 2.68 11 2 11 C1.46770674 9.73392393 0.94955456 8.46189588 0.4375 7.1875 C0.14746094 6.47980469 -0.14257812 5.77210938 -0.44140625 5.04296875 C-1 3 -1 3 0 0 Z " fill="#4087C5" transform="translate(433,436)"/>
<path d="M0 0 C0.68707555 2.49064888 1 4.37886292 1 7 C2.65 7.33 4.3 7.66 6 8 C6.33 7.34 6.66 6.68 7 6 C7 6.99 7 7.98 7 9 C4.03 9 1.06 9 -2 9 C-1.125 2.25 -1.125 2.25 0 0 Z " fill="#2D5679" transform="translate(634,430)"/>
<path d="M0 0 C0.66 0 1.32 0 2 0 C0.4169423 4.2742558 -2.50568404 6.26531794 -6 9 C-6 6 -6 6 -3.5625 3.375 C-2.716875 2.59125 -1.87125 1.8075 -1 1 C-0.67 0.67 -0.34 0.34 0 0 Z " fill="#1CBAB6" transform="translate(226,360)"/>
<path d="M0 0 C0.66 0 1.32 0 2 0 C4.09350689 3.4019487 4.17942163 6.05272412 4 10 C3.34 10 2.68 10 2 10 C1.34 6.7 0.68 3.4 0 0 Z " fill="#3F85C2" transform="translate(530,431)"/>
<path d="M0 0 C7.38461538 -0.49230769 7.38461538 -0.49230769 10.5 2 C10.995 2.66 11.49 3.32 12 4 C10.37399059 3.9129995 8.74910322 3.8048219 7.125 3.6875 C6.22007812 3.62949219 5.31515625 3.57148438 4.3828125 3.51171875 C2 3 2 3 0 0 Z " fill="#3B7BB2" transform="translate(264,423)"/>
<path d="M0 0 C2 2 2 2 2.125 4.625 C2.08375 5.40875 2.0425 6.1925 2 7 C1.34 7 0.68 7 0 7 C-0.99 7.99 -1.98 8.98 -3 10 C-2.01 6.7 -1.02 3.4 0 0 Z " fill="#3C7CB4" transform="translate(630,432)"/>
<path d="M0 0 C0.66 0.33 1.32 0.66 2 1 C-0.31 3.64 -2.62 6.28 -5 9 C-5.33 8.34 -5.66 7.68 -6 7 C-4.02 4.69 -2.04 2.38 0 0 Z " fill="#2D476A" transform="translate(312,155)"/>
<path d="M0 0 C0.66 1.32 1.32 2.64 2 4 C-0.97 4 -3.94 4 -7 4 C-7 3.34 -7 2.68 -7 2 C-4.69 2 -2.38 2 0 2 C0 1.34 0 0.68 0 0 Z " fill="#2B4D6D" transform="translate(500,435)"/>
<path d="M0 0 C-1.16142685 4.35535069 -2.07699505 6.64619703 -6 9 C-5.690625 8.401875 -5.38125 7.80375 -5.0625 7.1875 C-3.89790296 4.91043228 -3.89790296 4.91043228 -3 2 C-3.66 1.67 -4.32 1.34 -5 1 C-3 0 -3 0 0 0 Z " fill="#496DBB" transform="translate(330,144)"/>
<path d="M0 0 C0.33 1.32 0.66 2.64 1 4 C1.33 4.99 1.66 5.98 2 7 C1.34 7.66 0.68 8.32 0 9 C-0.99 9 -1.98 9 -3 9 C-2.01 6.03 -1.02 3.06 0 0 Z " fill="#3871A4" transform="translate(543,427)"/>
<path d="M0 0 C0.99 0.33 1.98 0.66 3 1 C2.625 3.9375 2.625 3.9375 2 7 C1.01 7.495 1.01 7.495 0 8 C0 5.36 0 2.72 0 0 Z " fill="#418ACA" transform="translate(345,427)"/>
<path d="M0 0 C1.65 1.65 3.3 3.3 5 5 C1.37 4.67 -2.26 4.34 -6 4 C-6 3.67 -6 3.34 -6 3 C-4.02 2.67 -2.04 2.34 0 2 C0 1.34 0 0.68 0 0 Z " fill="#1F626A" transform="translate(357,313)"/>
<path d="M0 0 C0.66 1.32 1.32 2.64 2 4 C-1.8503105 6.56687367 -3.58569763 5.83288724 -8 5 C-8 4.67 -8 4.34 -8 4 C-6.865625 3.71125 -5.73125 3.4225 -4.5625 3.125 C-3.386875 2.75375 -2.21125 2.3825 -1 2 C-0.67 1.34 -0.34 0.68 0 0 Z " fill="#3C7EB6" transform="translate(311,440)"/>
<path d="M0 0 C-1.49097658 3.7952131 -3.75700849 5.61042731 -7 8 C-4.18918919 0 -4.18918919 0 0 0 Z " fill="#29506B" transform="translate(362,210)"/>
<path d="M0 0 C1.2380014 3.57644848 0.74926071 6.33694766 0 10 C-0.99 9.01 -1.98 8.02 -3 7 C-1.125 1.125 -1.125 1.125 0 0 Z " fill="#2D5375" transform="translate(289,187)"/>
<path d="M0 0 C0.99 0.33 1.98 0.66 3 1 C3 2.98 3 4.96 3 7 C2.34 7 1.68 7 1 7 C0.67 4.69 0.34 2.38 0 0 Z " fill="#428DCD" transform="translate(345,440)"/>
<path d="M0 0 C1.5 1.375 1.5 1.375 3 3 C3 3.66 3 4.32 3 5 C2.34 5 1.68 5 1 5 C0.67 5.66 0.34 6.32 0 7 C-0.33 6.01 -0.66 5.02 -1 4 C-1.66 3.34 -2.32 2.68 -3 2 C-2.01 1.34 -1.02 0.68 0 0 Z " fill="#3C7EB7" transform="translate(677,436)"/>
<path d="M0 0 C0 0.99 0 1.98 0 3 C-3.63 2.67 -7.26 2.34 -11 2 C-11 1.67 -11 1.34 -11 1 C-7.26513121 0.4254048 -3.78706732 0 0 0 Z " fill="#3F85C2" transform="translate(398,424)"/>
</svg>
